<?xml version="1.0" standalone="no"?>
<!DOCTYPE svg PUBLIC "-//W3C//DTD SVG 1.1//EN" "http://www.w3.org/Graphics/SVG/1.1/DTD/svg11.dtd">
<svg t="1742360067824" class="icon" viewBox="0 0 1024 1024" version="1.1"
    xmlns="http://www.w3.org/2000/svg" p-id="1974" xmlns:xlink="http://www.w3.org/1999/xlink"
    width="200" height="200">
    <path fill="#ffffff"
        d="M514.56 51.2a233.6 233.6 0 0 1 233.536 233.6l-0.064 71.744 115.968 0.064a32 32 0 0 1 32 32V915.2a32 32 0 0 1-32 32h-704a32 32 0 0 1-32-32V388.608a32 32 0 0 1 32-32h120.896V284.672A233.6 233.6 0 0 1 514.56 51.2z m291.84 395.392H218.112v410.56H806.4V446.592zM512 584.96a46.08 46.08 0 0 1 46.08 46.08V697.6a46.08 46.08 0 1 1-92.16 0V631.04A46.08 46.08 0 0 1 512 584.96zM514.56 140.8a144 144 0 0 0-143.68 134.08l-0.32 9.856-0.064 71.808h287.936V284.8a144 144 0 0 0-134.08-143.616L514.56 140.8z"
        p-id="1975"></path>
</svg>