<?xml version="1.0" standalone="no"?><!DOCTYPE svg PUBLIC "-//W3C//DTD SVG 1.1//EN" "http://www.w3.org/Graphics/SVG/1.1/DTD/svg11.dtd"><svg t="1742360078208" class="icon" viewBox="0 0 1024 1024" version="1.1" xmlns="http://www.w3.org/2000/svg" p-id="2129" xmlns:xlink="http://www.w3.org/1999/xlink" width="200" height="200"><path d="M739.584 222.272l1.728 7.488 3.328 15.488c1.024 9.6 0.96 17.536-3.328 23.808-4.352 6.272-13.888 12.288-23.296 15.36a158.656 158.656 0 0 1-26.752 5.568c-19.392 0-28.16-3.008-36.608-24.128l-3.328-15.488C637.504 185.792 572.16 140.16 499.392 147.136c-69.888 6.656-122.24 59.456-125.44 121.92l-0.192 6.272v101.312h490.24a32 32 0 0 1 32 32V915.2a32 32 0 0 1-32 32h-704a32 32 0 0 1-32-32V408.704a32 32 0 0 1 32-32h121.6V275.264C281.472 159.296 372.8 63.616 490.88 52.288c115.008-11.008 221.44 61.184 248.704 169.984zM806.4 466.688H218.112v390.464H806.4V466.688zM558.08 630.976V697.6a46.08 46.08 0 1 1-92.16 0V631.04a46.08 46.08 0 1 1 92.16 0z" p-id="2130"></path></svg>